#Comment line ignore any data following # character 
#Hierarchical Translation and Rotation (.htr) file 
[Header]	
#Header keywords are followed by a single value 
FileType HTR		#Single word string
DataType HTRS		#Translation followed by rotation and scale data
FileVersion 1		#integer
NumSegments 14		#integer
NumFrames 6		#integer
DataFrameRate 30		#integer, data frame rate in this file
EulerRotationOrder ZYX
CalibrationUnits mm
RotationUnits Degrees
GlobalAxisofGravity Y
BoneLengthAxis Y
ScaleFactor 1.00
[SegmentNames&Hierarchy]
#CHILD	PARENT
MASTER GLOBAL
weapon MASTER
barrel_root weapon
middle_left_energyLow_part1 weapon
middle_left_energyLow_part2 weapon
middle_left_root weapon
middle_right_energyLow_part1 weapon
middle_top weapon
barrel1_top_root barrel_root
barrel2_top_root barrel_root
barrel3_top_root barrel_root
barrel1_top_back barrel1_top_root
barrel2_top_back barrel2_top_root
barrel3_top_back barrel3_top_root
[BasePosition]
#SegmentName Tx, Ty, Tz, Rx, Ry, Rz, BoneLength
MASTER 0.000000 0.000000 0.000000 -90.000000 0.000000 0.000000 10.000000 
weapon 0.000000 0.000000 0.000000 0.000000 0.000000 0.000000 10.000000 
barrel_root 0.000000 0.000000 0.000000 0.000000 0.000000 0.000000 10.000000 
middle_left_energyLow_part1 0.000000 0.000000 0.000000 0.000000 0.000000 0.000000 10.000000 
middle_left_energyLow_part2 0.000000 0.000000 0.000000 0.000000 0.000000 0.000000 10.000000 
middle_left_root 0.000000 0.000000 0.000000 0.000000 0.000000 0.000000 10.000000 
middle_right_energyLow_part1 0.000000 0.000000 0.000000 0.000000 0.000000 0.000000 10.000000 
middle_top 0.000000 0.000000 0.000000 0.000000 0.000000 0.000000 10.000000 
barrel1_top_root 0.000000 0.000000 0.000000 0.000000 0.000000 0.000000 10.000000 
barrel2_top_root 0.000000 0.000000 0.000000 0.000000 0.000000 0.000000 10.000000 
barrel3_top_root 0.000000 0.000000 0.000000 0.000000 0.000000 0.000000 10.000000 
barrel1_top_back 0.000000 0.000000 0.000000 0.000000 0.000000 0.000000 10.000000 
barrel2_top_back 0.000000 0.000000 0.000000 0.000000 0.000000 0.000000 10.000000 
barrel3_top_back 0.000000 0.000000 0.000000 0.000000 0.000000 0.000000 10.000000 
#Beginning of Data. Separated by tabs
#Fr	Tx	Ty	Tz	Rx	Ry	Rz	SF
[MASTER]
13 0.000000 0.000000 0.000000 0.000000 -0.000000 0.000000 0.000000
14 0.000000 0.000000 0.000000 0.000000 -0.000000 0.000000 0.000000
15 0.000000 0.000000 0.000000 0.000000 -0.000000 0.000000 0.000000
16 0.000000 0.000000 0.000000 0.000000 -0.000000 0.000000 0.000000
17 0.000000 0.000000 0.000000 0.000000 -0.000000 0.000000 0.000000
18 0.000000 0.000000 0.000000 0.000000 -0.000000 0.000000 0.000000
[weapon]
13 0.000005 -104.980545 30.104675 0.000000 0.000000 -0.000020 109.211746
14 0.000024 -104.980507 30.104521 0.000000 0.000000 -0.000020 109.211670
15 -0.000048 -104.980385 30.104521 0.000000 0.000000 -0.000020 109.211555
16 0.000010 -104.980507 30.104521 0.000000 0.000000 -0.000020 109.211670
17 0.000000 -104.980545 30.104675 0.000000 0.000000 -0.000020 109.211746
18 0.000000 -104.980385 30.104675 0.000000 0.000000 -0.000020 109.211601
[barrel_root]
13 0.000006 272.535400 -55.258583 0.001205 -63.821819 0.001205 278.081024
14 -0.000006 274.447266 -55.258610 0.001194 -68.658440 0.001194 279.955048
15 -0.000019 276.359070 -55.258636 0.001188 -72.389740 0.001188 281.829498
16 -0.000035 278.504425 -55.258636 0.001184 -74.786049 0.001184 283.933502
17 -0.000051 280.649811 -55.258636 0.001183 -75.635056 0.001183 286.038177
18 -0.000067 282.795166 -55.258636 0.001185 -74.288879 0.001185 288.143402
[middle_left_energyLow_part1]
13 -129.342621 -30.653114 8.090967 0.001568 -6.936425 0.001568 133.171280
14 -126.454948 -30.653126 14.286187 0.001554 -8.066860 0.001554 130.899063
15 -123.567268 -30.653139 20.481407 0.001541 -9.197293 0.001541 128.949493
16 -120.679588 -30.653152 26.676634 0.001527 -10.413445 0.001527 127.337433
17 -117.928932 -30.653076 32.721855 0.001513 -11.690429 0.001513 126.164825
18 -115.309204 -30.653229 38.574829 0.001499 -13.013666 0.001499 125.394775
[middle_left_energyLow_part2]
13 -157.356079 -29.422760 -40.000767 0.002076 21.165691 0.002076 165.005142
14 -155.534088 -29.583549 -34.517902 0.002160 24.182156 0.002160 162.041733
15 -153.712082 -29.744339 -29.035040 0.002257 27.304949 0.002257 159.233047
16 -151.816376 -29.911514 -23.330536 0.002363 30.427729 0.002363 156.483948
17 -149.920685 -30.078690 -17.626043 0.002484 33.617912 0.002484 153.920822
18 -148.024979 -30.245865 -11.921538 0.002623 36.813507 0.002623 151.553055
[middle_left_root]
13 -108.948547 -30.652884 -35.339817 0.004139 -57.052940 179.995865 118.567650
14 -114.024681 -30.652922 -29.929739 0.004251 -57.950783 179.995743 121.807304
15 -119.100815 -30.652960 -24.519657 0.004370 -58.845932 179.995636 125.402641
16 -124.075188 -30.653000 -19.241486 0.004494 -59.722286 179.995514 129.245865
17 -128.896286 -30.652924 -14.145513 0.004620 -60.568069 179.995377 133.243942
18 -133.500137 -30.653000 -9.301758 0.004748 -61.377296 179.995255 137.289536
[middle_right_energyLow_part1]
13 119.937187 -29.615133 8.090815 0.001770 -6.934797 179.998230 123.804070
14 117.049492 -29.615160 14.286086 0.001790 -8.035093 179.998215 121.580154
15 114.161789 -29.615185 20.481356 0.001811 -9.195662 179.998184 119.705719
16 111.274086 -29.615210 26.676634 0.001834 -10.411814 179.998169 118.197403
17 108.523544 -29.615173 32.721855 0.001859 -11.688788 179.998154 117.154335
18 105.903709 -29.615362 38.574829 0.001886 -13.012031 179.998123 116.536186
[middle_top]
13 -3.220498 -0.264364 59.132381 1.149076 0.001643 0.001676 59.220608
14 -3.220491 -6.584008 59.132381 1.317245 0.001641 0.001679 59.584896
15 -3.220491 -12.869637 59.132458 1.500246 0.001638 0.001681 60.602360
16 -3.220491 -19.155273 59.132534 1.688197 0.001635 0.001684 62.241085
17 -3.220520 -25.174896 59.132534 1.881105 0.001632 0.001687 64.349075
18 -3.220510 -30.908432 59.132381 2.074018 0.001629 0.001690 66.800758
[barrel1_top_root]
13 0.000081 96.240509 0.000132 0.000000 -0.000000 0.000000 96.240509
14 0.000081 96.240509 0.000132 0.000000 -0.000000 0.000000 96.240509
15 0.000081 96.240509 0.000132 0.000000 -0.000000 0.000000 96.240509
16 0.000081 96.240509 0.000132 0.000000 -0.000000 0.000000 96.240509
17 0.000081 96.240509 0.000132 0.000000 -0.000000 0.000000 96.240509
18 0.000081 96.240509 0.000132 0.000000 -0.000000 0.000000 96.240509
[barrel2_top_root]
13 -0.000009 124.139923 0.000132 179.998825 -86.465698 179.998825 124.139923
14 -0.000009 124.139923 0.000132 0.000000 -89.827538 0.002347 124.139923
15 -0.000009 124.139923 0.000132 0.001174 -86.248764 0.001174 124.139923
16 -0.000009 124.139923 0.000132 0.001176 -82.859772 0.001176 124.139923
17 -0.000009 124.139923 0.000132 0.001178 -79.717911 0.001178 124.139923
18 -0.000009 124.139923 0.000132 0.001181 -76.886269 0.001181 124.139923
[barrel3_top_root]
13 0.000101 69.591400 0.000123 179.961960 86.463486 179.961960 69.591400
14 0.000101 69.591400 0.000123 0.000000 89.827538 0.000003 69.591400
15 0.000101 69.591400 0.000123 0.035902 86.253365 0.035902 69.591400
16 0.000101 69.591400 0.000123 0.018841 82.857521 0.018841 69.591400
17 0.000101 69.591400 0.000123 0.013095 79.715805 0.013095 69.591400
18 0.000101 69.591400 0.000123 0.010281 76.890495 0.010281 69.591400
[barrel1_top_back]
13 -3.343935 98.041893 186.671844 -7.387369 0.001763 0.001549 210.878571
14 -3.343935 98.041893 186.671844 -8.540457 0.001779 0.001532 210.878571
15 -3.343935 98.041893 186.671844 -9.693546 0.001794 0.001514 210.878571
16 -3.343935 98.041893 186.671844 -10.920098 0.001810 0.001494 210.878571
17 -3.343935 98.041893 186.671844 -12.187693 0.001827 0.001474 210.878571
18 -3.343935 98.041893 186.671844 -13.520045 0.001844 0.001453 210.878571
[barrel2_top_back]
13 3.886122 70.142326 185.630630 -3.762681 0.001713 0.001604 198.478668
14 3.886122 70.142326 185.630630 -4.336742 0.001721 0.001596 198.478668
15 3.886122 70.142326 185.630630 -4.948109 0.001730 0.001587 198.478668
16 3.886122 70.142326 185.630630 -5.559474 0.001738 0.001577 198.478668
17 3.886122 70.142326 185.630630 -6.208215 0.001747 0.001567 198.478668
18 3.886122 70.142326 185.630630 -6.872016 0.001756 0.001557 198.478668
[barrel3_top_back]
13 -0.050068 125.495209 180.152344 -5.410931 0.001736 0.001580 219.553894
14 -0.050068 125.495209 180.152344 -6.242880 0.001748 0.001567 219.553894
15 -0.050068 125.495209 180.152344 -7.114810 0.001760 0.001554 219.553894
16 -0.050068 125.495209 180.152344 -8.021844 0.001772 0.001540 219.553894
17 -0.050068 125.495209 180.152344 -8.959155 0.001784 0.001525 219.553894
18 -0.050068 125.495209 180.152344 -9.931817 0.001797 0.001510 219.553894
